<svg width="223px" height="338px"
 viewBox="0.00 0.00 222.81 338.00" xmlns="http://www.w3.org/2000/svg" xmlns:xlink="http://www.w3.org/1999/xlink">
<g id="graph0" class="graph" transform="scale(1.0 1.0) rotate(0) translate(4 334)">
<title>de.ks.privateProject2021.ttt.model</title>
<polygon fill="white" stroke="transparent" points="-4,4 -4,-334 218.81,-334 218.81,4 -4,4"/>
<!-- Block -->
<g id="node1" class="node">
<title>Block</title>
<polygon fill="none" stroke="black" points="56.5,-76.5 56.5,-98.5 162.5,-98.5 162.5,-76.5 56.5,-76.5"/>
<text text-anchor="start" x="92.78" y="-82.9" font-family="Times,serif" font-size="14.00">Block</text>
<polygon fill="none" stroke="black" points="56.5,-3.5 56.5,-76.5 162.5,-76.5 162.5,-3.5 56.5,-3.5"/>
<text text-anchor="start" x="59.5" y="-60.9" font-family="Times,serif" font-size="14.00">xPos :int</text>
<text text-anchor="start" x="59.5" y="-44.1" font-family="Times,serif" font-size="14.00">yPos :int</text>
<text text-anchor="start" x="59.5" y="-27.3" font-family="Times,serif" font-size="14.00">positionValue :int</text>
<text text-anchor="start" x="59.5" y="-10.5" font-family="Times,serif" font-size="14.00">markedWith :int</text>
</g>
<!-- Game -->
<g id="node2" class="node">
<title>Game</title>
<polygon fill="none" stroke="black" points="8.5,-181.5 8.5,-203.5 119.5,-203.5 119.5,-181.5 8.5,-181.5"/>
<text text-anchor="start" x="47.29" y="-187.9" font-family="Times,serif" font-size="14.00">Game</text>
<polygon fill="none" stroke="black" points="8.5,-142.5 8.5,-181.5 119.5,-181.5 119.5,-142.5 8.5,-142.5"/>
<text text-anchor="start" x="11.5" y="-165.9" font-family="Times,serif" font-size="14.00">gameName :String</text>
<text text-anchor="start" x="11.5" y="-149.1" font-family="Times,serif" font-size="14.00">fieldLength :int</text>
</g>
<!-- Block&#45;&gt;Game -->
<g id="edge1" class="edge">
<title>Block&#45;&gt;Game</title>
<path fill="none" stroke="black" d="M90.13,-103.04C85.51,-115.08 80.69,-127.65 76.45,-138.73"/>
<text text-anchor="middle" x="61.29" y="-126.13" font-family="Times,serif" font-size="14.00">game</text>
<text text-anchor="middle" x="54.93" y="-107.24" font-family="Times,serif" font-size="14.00">blockField *</text>
</g>
<!-- Player -->
<g id="node3" class="node">
<title>Player</title>
<polygon fill="none" stroke="black" points="51.5,-304 51.5,-326 167.5,-326 167.5,-304 51.5,-304"/>
<text text-anchor="start" x="91.62" y="-310.4" font-family="Times,serif" font-size="14.00">Player</text>
<polygon fill="none" stroke="black" points="51.5,-248 51.5,-304 167.5,-304 167.5,-248 51.5,-248"/>
<text text-anchor="start" x="54.5" y="-288.4" font-family="Times,serif" font-size="14.00">playerName :String</text>
<text text-anchor="start" x="54.5" y="-271.6" font-family="Times,serif" font-size="14.00">playerID :int</text>
<text text-anchor="start" x="54.5" y="-254.8" font-family="Times,serif" font-size="14.00">victory :boolean</text>
</g>
<!-- Block&#45;&gt;Player -->
<g id="edge3" class="edge">
<title>Block&#45;&gt;Player</title>
<path fill="none" stroke="black" d="M128.1,-103.13C131.59,-114.75 134.7,-127.18 136.5,-139 141.12,-169.32 141.59,-177.76 136.5,-208 134.5,-219.87 130.91,-232.35 126.98,-243.76"/>
<text text-anchor="middle" x="144.47" y="-231.16" font-family="Times,serif" font-size="14.00">player</text>
<text text-anchor="middle" x="171.46" y="-107.33" font-family="Times,serif" font-size="14.00">ownedBlocks *</text>
</g>
<!-- Game&#45;&gt;Player -->
<g id="edge2" class="edge">
<title>Game&#45;&gt;Player</title>
<path fill="none" stroke="black" d="M77.43,-208.26C82.03,-219.41 87.21,-231.96 92.04,-243.67"/>
<text text-anchor="middle" x="66.57" y="-231.07" font-family="Times,serif" font-size="14.00">players *</text>
<text text-anchor="middle" x="62.27" y="-212.46" font-family="Times,serif" font-size="14.00">game</text>
</g>
</g>
</svg>
